<svg xmlns="http://www.w3.org/2000/svg" viewBox="0 0 290 128" width="290" height="128">
  <style>
    .label { font-family: -apple-system, BlinkMacSystemFont, "Segoe UI", Helvetica, Arial, sans-serif; font-size: 13px; fill: #8b949e; dominant-baseline: middle; text-anchor: end; }
    .bar-fill { fill: #58a6ff; }
    .bar-track { fill: #21262d; }
    @media (prefers-color-scheme: light) {
      .label { fill: #656d76; }
      .bar-track { fill: #d0d7de; }
    }
  </style>
  <rect class="bar-track" x="68" y="2" width="140" height="14" rx="3" ry="3"/>
  <rect class="bar-fill" x="68" y="2" width="126" height="14" rx="3" ry="3"/>
  <text class="label" x="60" y="10">Python</text>
  <rect class="bar-track" x="68" y="24" width="140" height="14" rx="3" ry="3"/>
  <rect class="bar-fill" x="68" y="24" width="42" height="14" rx="3" ry="3"/>
  <text class="label" x="60" y="32">C++</text>
  <rect class="bar-track" x="68" y="46" width="140" height="14" rx="3" ry="3"/>
  <rect class="bar-fill" x="68" y="46" width="112" height="14" rx="3" ry="3"/>
  <text class="label" x="60" y="54">Bash</text>
  <rect class="bar-track" x="68" y="68" width="140" height="14" rx="3" ry="3"/>
  <rect class="bar-fill" x="68" y="68" width="140" height="14" rx="3" ry="3"/>
  <text class="label" x="60" y="76">Linux</text>
  <rect class="bar-track" x="68" y="90" width="140" height="14" rx="3" ry="3"/>
  <rect class="bar-fill" x="68" y="90" width="84" height="14" rx="3" ry="3"/>
  <text class="label" x="60" y="98">Docker</text>
  <rect class="bar-track" x="68" y="112" width="140" height="14" rx="3" ry="3"/>
  <rect class="bar-fill" x="68" y="112" width="140" height="14" rx="3" ry="3"/>
  <text class="label" x="60" y="120">Git</text>
</svg>