<svg xmlns="http://www.w3.org/2000/svg" viewBox="0 0 290 132" width="290" height="132">
  <style>
    .sk-text { font-family: -apple-system, BlinkMacSystemFont, 'Segoe UI', Helvetica, Arial, sans-serif; }
    .sk-bar-track { fill: var(--sk-track, #1a1a1a); }
    .sk-bar-fill { fill: var(--sk-accent, #00ff41); }
    .sk-label { font-size: 13px; fill: var(--sk-muted, #0d660d); dominant-baseline: middle; }
    .sk-value { font-size: 13px; fill: var(--sk-fg, #00ff41); dominant-baseline: middle; }
    .sk-title { font-size: 15px; font-weight: 600; fill: var(--sk-fg, #00ff41); }
    .sk-star { fill: var(--sk-star, #39ff14); }
    .sk-desc { font-size: 12px; fill: var(--sk-muted, #0d660d); }
    .sk-card { fill: var(--sk-card-bg, #0f0f0f); stroke: var(--sk-border, #0d660d); stroke-width: 1; rx: 6; }
    @media (prefers-color-scheme: light) {
            --sk-bg: #f5f5f5;
      --sk-fg: #1a1a1a;
      --sk-accent: #006400;
      --sk-track: #d4d4d4;
      --sk-muted: #666666;
      --sk-border: #b0b0b0;
      --sk-card_bg: #ffffff;
      --sk-star_color: #f0c14b;
    }
  </style>
  <rect class="sk-bar-track" x="78" y="4" width="140" height="14" rx="3" ry="3"/>
  <rect class="sk-bar-fill" x="78" y="4" width="126" height="14" rx="3" ry="3"/>
  <text class="sk-label" x="70" y="12">Python</text>
  <text class="sk-value" x="224" y="12">90%</text>
  <rect class="sk-bar-track" x="78" y="26" width="140" height="14" rx="3" ry="3"/>
  <rect class="sk-bar-fill" x="78" y="26" width="42" height="14" rx="3" ry="3"/>
  <text class="sk-label" x="70" y="34">C++</text>
  <text class="sk-value" x="224" y="34">30%</text>
  <rect class="sk-bar-track" x="78" y="48" width="140" height="14" rx="3" ry="3"/>
  <rect class="sk-bar-fill" x="78" y="48" width="112" height="14" rx="3" ry="3"/>
  <text class="sk-label" x="70" y="56">Bash</text>
  <text class="sk-value" x="224" y="56">80%</text>
  <rect class="sk-bar-track" x="78" y="70" width="140" height="14" rx="3" ry="3"/>
  <rect class="sk-bar-fill" x="78" y="70" width="140" height="14" rx="3" ry="3"/>
  <text class="sk-label" x="70" y="78">Linux</text>
  <text class="sk-value" x="224" y="78">100%</text>
  <rect class="sk-bar-track" x="78" y="92" width="140" height="14" rx="3" ry="3"/>
  <rect class="sk-bar-fill" x="78" y="92" width="84" height="14" rx="3" ry="3"/>
  <text class="sk-label" x="70" y="100">Docker</text>
  <text class="sk-value" x="224" y="100">60%</text>
  <rect class="sk-bar-track" x="78" y="114" width="140" height="14" rx="3" ry="3"/>
  <rect class="sk-bar-fill" x="78" y="114" width="140" height="14" rx="3" ry="3"/>
  <text class="sk-label" x="70" y="122">Git</text>
  <text class="sk-value" x="224" y="122">100%</text>
</svg>